<svg width="11" height="11" viewBox="0 0 11 11" fill="none" xmlns="http://www.w3.org/2000/svg">
<path fill-rule="evenodd" clip-rule="evenodd" d="M2.70563 5.25257C2.70563 3.95212 3.76321 2.89455 5.06366 2.89455C6.36411 2.89455 7.42168 3.95212 7.42168 5.25257C7.42168 6.55302 6.36411 7.61059 5.06366 7.61059C3.76321 7.61059 2.70563 6.55302 2.70563 5.25257M8.87854 8.51175L7.54429 7.17711C7.95812 6.64498 8.20768 5.97805 8.20768 5.25257C8.20768 3.51903 6.79719 2.10854 5.06365 2.10854C3.33011 2.10854 1.91962 3.51903 1.91962 5.25257C1.91962 6.98611 3.33011 8.3966 5.06365 8.3966C5.78913 8.3966 6.45606 8.14704 6.98819 7.73321L8.32283 9.06746C8.39947 9.14409 8.50007 9.18261 8.60068 9.18261C8.70129 9.18261 8.8019 9.14409 8.87854 9.06746C9.0322 8.91379 9.0322 8.66541 8.87854 8.51175" fill="white"/>
<mask id="mask0_414_2258" style="mask-type:luminance" maskUnits="userSpaceOnUse" x="1" y="2" width="8" height="8">
<path fill-rule="evenodd" clip-rule="evenodd" d="M2.70563 5.25257C2.70563 3.95212 3.76321 2.89455 5.06366 2.89455C6.36411 2.89455 7.42168 3.95212 7.42168 5.25257C7.42168 6.55302 6.36411 7.61059 5.06366 7.61059C3.76321 7.61059 2.70563 6.55302 2.70563 5.25257M8.87854 8.51175L7.54429 7.17711C7.95812 6.64498 8.20768 5.97805 8.20768 5.25257C8.20768 3.51903 6.79719 2.10854 5.06365 2.10854C3.33011 2.10854 1.91962 3.51903 1.91962 5.25257C1.91962 6.98611 3.33011 8.3966 5.06365 8.3966C5.78913 8.3966 6.45606 8.14704 6.98819 7.73321L8.32283 9.06746C8.39947 9.14409 8.50007 9.18261 8.60068 9.18261C8.70129 9.18261 8.8019 9.14409 8.87854 9.06746C9.0322 8.91379 9.0322 8.66541 8.87854 8.51175" fill="white"/>
</mask>
<g mask="url(#mask0_414_2258)">
<rect x="0.740631" y="0.92952" width="9.43209" height="9.43209" fill="white"/>
</g>
</svg>
